<svg width="190" height="70" viewBox="0 0 190 70" fill="none" xmlns="http://www.w3.org/2000/svg">
<path d="M31.968 69.888C30.048 69.888 28.192 69.472 26.4 68.64C24.672 67.744 23.232 66.464 22.08 64.8C20.992 63.136 20.448 61.088 20.448 58.656C20.448 57.056 20.48 55.616 20.544 54.336C14.464 52.736 9.50401 49.728 5.66401 45.312C1.88801 40.832 6.13928e-06 34.848 6.13928e-06 27.36C6.13928e-06 19.936 1.24801 14.016 3.74401 9.6C6.24001 5.12 10.048 2.88 15.168 2.88C18.688 2.88 21.504 3.936 23.616 6.048C25.792 8.16 26.88 11.136 26.88 14.976C26.88 17.088 26.72 19.2 26.4 21.312C26.144 23.424 26.016 25.12 26.016 26.4C26.016 28.96 26.464 30.976 27.36 32.448C28.256 33.92 29.792 34.656 31.968 34.656C34.208 34.656 35.744 33.92 36.576 32.448C37.472 30.976 37.92 28.96 37.92 26.4C37.92 25.12 37.76 23.392 37.44 21.216C37.184 18.976 37.056 16.864 37.056 14.88C37.056 11.104 38.144 8.16 40.32 6.048C42.496 3.936 45.344 2.88 48.864 2.88C52.32 2.88 55.168 3.872 57.408 5.856C59.648 7.84 61.312 10.592 62.4 14.112C63.488 17.632 64.032 21.664 64.032 26.208C64.032 34.464 62.016 40.896 57.984 45.504C54.016 50.048 48.832 53.056 42.432 54.528C42.496 55.744 42.528 57.12 42.528 58.656C42.528 61.152 42.016 63.232 40.992 64.896C39.968 66.56 38.656 67.808 37.056 68.64C35.456 69.472 33.76 69.888 31.968 69.888ZM90.1695 69.888C85.4335 69.888 81.3055 68.736 77.7855 66.432C74.3295 64.064 71.6415 60.8 69.7215 56.64C67.8655 52.416 66.9375 47.552 66.9375 42.048C66.9375 36.672 67.7695 32.448 69.4335 29.376C71.1615 26.304 73.5935 24.768 76.7295 24.768C78.9695 24.768 80.6655 25.184 81.8175 26.016C83.0335 26.848 83.8335 27.904 84.2175 29.184C84.6655 30.4 84.8895 31.712 84.8895 33.12C84.8895 34.912 84.7615 36.736 84.5055 38.592C84.3135 40.448 84.2175 42.432 84.2175 44.544C84.2175 47.552 84.8255 49.76 86.0415 51.168C87.3215 52.512 88.6975 53.184 90.1695 53.184C91.7695 53.184 93.1455 52.512 94.2975 51.168C95.5135 49.76 96.1215 47.552 96.1215 44.544C96.1215 42.432 96.0255 40.544 95.8335 38.88C95.6415 37.216 95.5455 35.328 95.5455 33.216C95.5455 30.976 96.0895 29.024 97.1775 27.36C98.2655 25.632 100.442 24.768 103.706 24.768C106.842 24.768 109.242 26.304 110.906 29.376C112.57 32.448 113.402 36.672 113.402 42.048C113.402 47.552 112.538 52.416 110.81 56.64C109.082 60.8 106.49 64.064 103.034 66.432C99.6415 68.736 95.3535 69.888 90.1695 69.888ZM128.987 69.696C124.699 69.696 121.723 67.072 120.059 61.824C118.395 56.512 117.563 47.968 117.563 36.192C117.563 29.6 117.787 23.808 118.235 18.816C118.683 13.76 119.707 9.824 121.307 7.008C122.971 4.128 125.531 2.688 128.987 2.688C131.483 2.688 133.371 3.424 134.651 4.896C135.995 6.368 136.923 8.448 137.435 11.136C138.011 13.824 138.331 17.024 138.395 20.736C138.459 24.448 138.491 28.544 138.491 33.024L138.779 32.832C141.979 30.656 145.083 28.8 148.091 27.264C151.099 25.664 153.851 24.864 156.347 24.864C158.203 24.864 159.739 25.312 160.955 26.208C162.235 27.04 163.195 28.128 163.835 29.472C164.475 30.752 164.795 32.064 164.795 33.408C164.795 35.84 163.931 38.048 162.203 40.032C160.475 42.016 158.235 44.032 155.483 46.08C156.251 47.04 156.987 48.096 157.691 49.248C158.459 50.336 159.259 51.552 160.091 52.896C161.179 54.56 162.075 56.288 162.779 58.08C163.483 59.872 163.835 61.504 163.835 62.976C163.835 64.704 163.419 66.08 162.587 67.104C161.755 68.064 160.731 68.768 159.515 69.216C158.299 69.6 157.083 69.76 155.867 69.696C154.011 69.568 152.155 68.672 150.299 67.008C148.443 65.344 146.651 63.392 144.923 61.152C144.155 60.192 143.387 59.2 142.619 58.176C141.915 57.088 141.243 56.032 140.603 55.008C139.643 55.392 138.715 55.712 137.819 55.968C137.371 60.704 136.475 64.192 135.131 66.432C133.851 68.608 131.803 69.696 128.987 69.696ZM177.92 23.328C174.784 23.328 172.128 22.208 169.952 19.968C167.776 17.664 166.688 14.88 166.688 11.616C166.688 9.44 167.168 7.488 168.128 5.76C169.152 4.032 170.496 2.656 172.16 1.632C173.888 0.543997 175.808 -3.8147e-06 177.92 -3.8147e-06C179.968 -3.8147e-06 181.824 0.543997 183.488 1.632C185.216 2.656 186.592 4.032 187.616 5.76C188.64 7.488 189.152 9.44 189.152 11.616C189.152 13.792 188.64 15.776 187.616 17.568C186.592 19.296 185.216 20.704 183.488 21.792C181.824 22.816 179.968 23.328 177.92 23.328ZM177.92 69.888C175.36 69.888 173.44 69.152 172.16 67.68C170.944 66.208 170.112 63.968 169.664 60.96C169.28 57.888 169.056 53.952 168.992 49.152C168.992 44.352 169.184 40.416 169.568 37.344C170.016 34.272 170.88 32.032 172.16 30.624C173.44 29.152 175.36 28.416 177.92 28.416C180.48 28.416 182.368 29.152 183.584 30.624C184.864 32.032 185.728 34.272 186.176 37.344C186.624 40.416 186.848 44.352 186.848 49.152C186.912 53.952 186.72 57.888 186.272 60.96C185.824 63.968 184.96 66.208 183.68 67.68C182.4 69.152 180.48 69.888 177.92 69.888Z" fill="#FA99E1"/>
</svg>
