<svg width="296" height="116" viewBox="0 0 296 116" fill="none" xmlns="http://www.w3.org/2000/svg">
<path d="M34.368 115C32.448 115 30.592 114.584 28.8 113.752C27.072 112.856 25.632 111.576 24.48 109.912C23.392 108.248 22.848 106.2 22.848 103.768C22.848 102.168 22.88 100.728 22.944 99.448C16.864 97.848 11.904 94.84 8.064 90.424C4.288 85.944 2.4 79.96 2.4 72.472C2.4 65.048 3.648 59.128 6.144 54.712C8.64 50.232 12.448 47.992 17.568 47.992C21.088 47.992 23.904 49.048 26.016 51.16C28.192 53.272 29.28 56.248 29.28 60.088C29.28 62.2 29.12 64.312 28.8 66.424C28.544 68.536 28.416 70.232 28.416 71.512C28.416 74.072 28.864 76.088 29.76 77.56C30.656 79.032 32.192 79.768 34.368 79.768C36.608 79.768 38.144 79.032 38.976 77.56C39.872 76.088 40.32 74.072 40.32 71.512C40.32 70.232 40.16 68.504 39.84 66.328C39.584 64.088 39.456 61.976 39.456 59.992C39.456 56.216 40.544 53.272 42.72 51.16C44.896 49.048 47.744 47.992 51.264 47.992C54.72 47.992 57.568 48.984 59.808 50.968C62.048 52.952 63.712 55.704 64.8 59.224C65.888 62.744 66.432 66.776 66.432 71.32C66.432 79.576 64.416 86.008 60.384 90.616C56.416 95.16 51.232 98.168 44.832 99.64C44.896 100.856 44.928 102.232 44.928 103.768C44.928 106.264 44.416 108.344 43.392 110.008C42.368 111.672 41.056 112.92 39.456 113.752C37.856 114.584 36.16 115 34.368 115ZM92.5695 115C87.8335 115 83.7055 113.848 80.1855 111.544C76.7295 109.176 74.0415 105.912 72.1215 101.752C70.2655 97.528 69.3375 92.664 69.3375 87.16C69.3375 81.784 70.1695 77.56 71.8335 74.488C73.5615 71.416 75.9935 69.88 79.1295 69.88C81.3695 69.88 83.0655 70.296 84.2175 71.128C85.4335 71.96 86.2335 73.016 86.6175 74.296C87.0655 75.512 87.2895 76.824 87.2895 78.232C87.2895 80.024 87.1615 81.848 86.9055 83.704C86.7135 85.56 86.6175 87.544 86.6175 89.656C86.6175 92.664 87.2255 94.872 88.4415 96.28C89.7215 97.624 91.0975 98.296 92.5695 98.296C94.1695 98.296 95.5455 97.624 96.6975 96.28C97.9135 94.872 98.5215 92.664 98.5215 89.656C98.5215 87.544 98.4255 85.656 98.2335 83.992C98.0415 82.328 97.9455 80.44 97.9455 78.328C97.9455 76.088 98.4895 74.136 99.5775 72.472C100.666 70.744 102.842 69.88 106.106 69.88C109.242 69.88 111.642 71.416 113.306 74.488C114.97 77.56 115.802 81.784 115.802 87.16C115.802 92.664 114.938 97.528 113.21 101.752C111.482 105.912 108.89 109.176 105.434 111.544C102.042 113.848 97.7535 115 92.5695 115ZM131.387 114.808C127.099 114.808 124.123 112.184 122.459 106.936C120.795 101.624 119.963 93.08 119.963 81.304C119.963 74.712 120.187 68.92 120.635 63.928C121.083 58.872 122.107 54.936 123.707 52.12C125.371 49.24 127.931 47.8 131.387 47.8C133.883 47.8 135.771 48.536 137.051 50.008C138.395 51.48 139.323 53.56 139.835 56.248C140.411 58.936 140.731 62.136 140.795 65.848C140.859 69.56 140.891 73.656 140.891 78.136L141.179 77.944C144.379 75.768 147.483 73.912 150.491 72.376C153.499 70.776 156.251 69.976 158.747 69.976C160.603 69.976 162.139 70.424 163.355 71.32C164.635 72.152 165.595 73.24 166.235 74.584C166.875 75.864 167.195 77.176 167.195 78.52C167.195 80.952 166.331 83.16 164.603 85.144C162.875 87.128 160.635 89.144 157.883 91.192C158.651 92.152 159.387 93.208 160.091 94.36C160.859 95.448 161.659 96.664 162.491 98.008C163.579 99.672 164.475 101.4 165.179 103.192C165.883 104.984 166.235 106.616 166.235 108.088C166.235 109.816 165.819 111.192 164.987 112.216C164.155 113.176 163.131 113.88 161.915 114.328C160.699 114.712 159.483 114.872 158.267 114.808C156.411 114.68 154.555 113.784 152.699 112.12C150.843 110.456 149.051 108.504 147.323 106.264C146.555 105.304 145.787 104.312 145.019 103.288C144.315 102.2 143.643 101.144 143.003 100.12C142.043 100.504 141.115 100.824 140.219 101.08C139.771 105.816 138.875 109.304 137.531 111.544C136.251 113.72 134.203 114.808 131.387 114.808ZM180.32 68.44C177.184 68.44 174.528 67.32 172.352 65.08C170.176 62.776 169.088 59.992 169.088 56.728C169.088 54.552 169.568 52.6 170.528 50.872C171.552 49.144 172.896 47.768 174.56 46.744C176.288 45.656 178.208 45.112 180.32 45.112C182.368 45.112 184.224 45.656 185.888 46.744C187.616 47.768 188.992 49.144 190.016 50.872C191.04 52.6 191.552 54.552 191.552 56.728C191.552 58.904 191.04 60.888 190.016 62.68C188.992 64.408 187.616 65.816 185.888 66.904C184.224 67.928 182.368 68.44 180.32 68.44ZM180.32 115C177.76 115 175.84 114.264 174.56 112.792C173.344 111.32 172.512 109.08 172.064 106.072C171.68 103 171.456 99.064 171.392 94.264C171.392 89.464 171.584 85.528 171.968 82.456C172.416 79.384 173.28 77.144 174.56 75.736C175.84 74.264 177.76 73.528 180.32 73.528C182.88 73.528 184.768 74.264 185.984 75.736C187.264 77.144 188.128 79.384 188.576 82.456C189.024 85.528 189.248 89.464 189.248 94.264C189.312 99.064 189.12 103 188.672 106.072C188.224 109.08 187.36 111.32 186.08 112.792C184.8 114.264 182.88 115 180.32 115Z" fill="#FA99E1"/>
<path d="M258.006 21.3713C258.29 19.9229 257.036 18.883 255.206 19.0484C253.376 19.2139 251.662 20.5222 251.379 21.9705L250.885 24.4923L248.895 23.7817C247.409 23.2511 245.309 23.9217 244.202 25.2795C243.096 26.6373 243.404 28.1681 244.889 28.6986L249.723 30.4249L248.745 35.4133C246.281 36.1101 243.975 37.2892 242.05 38.779L237.077 36.7775L238.222 32.0483C238.574 30.5948 237.385 29.5067 235.567 29.618C233.748 29.7294 231.989 30.9979 231.637 32.4514L231.166 34.3982L228.653 33.3869C227.21 32.806 225.099 33.419 223.939 34.7561C222.778 36.0931 223.007 37.6479 224.45 38.2288L226.963 39.2401L224.685 40.4598C222.984 41.3704 222.2 43.0314 222.933 44.1698C223.667 45.3081 225.64 45.4929 227.341 44.5823L232.874 41.6194L237.844 43.62C237.356 44.542 237.004 45.4989 236.814 46.4715C236.623 47.4442 236.606 48.3708 236.744 49.2362L230.797 52.224L226.245 50.1729C224.846 49.5425 222.728 50.0972 221.515 51.4115C220.301 52.7261 220.451 54.3027 221.85 54.933L223.723 55.7773L220.716 57.2877C218.99 58.1551 218.132 59.8081 218.802 60.9796C219.471 62.1512 221.414 62.3978 223.141 61.5302L226.147 60.0198L225.859 61.9503C225.644 63.3914 226.961 64.3819 228.8 64.1622C230.64 63.9428 232.305 62.5967 232.521 61.1555L233.221 56.4665L239.171 53.4774C240.571 54.6667 242.491 55.4637 244.765 55.732L243.788 60.7205L238.092 63.3985C236.342 64.2217 235.413 65.8645 236.017 67.0674C236.622 68.2706 238.531 68.5787 240.281 67.7555L242.626 66.653L242.132 69.1748C241.849 70.6231 243.102 71.6631 244.933 71.4976C246.763 71.3321 248.476 70.0239 248.76 68.5755L249.254 66.0537L251.244 66.7644C252.729 67.2949 254.83 66.6243 255.936 65.2664C257.042 63.9088 256.735 62.3779 255.249 61.8473L250.416 60.1212L251.393 55.1328C253.857 54.436 256.163 53.2572 258.087 51.7676L263.061 53.7695L261.916 58.4987C261.564 59.9522 262.753 61.0403 264.572 60.9289C266.39 60.8176 268.149 59.549 268.501 58.0955L268.972 56.1487L271.485 57.1601C272.928 57.7411 275.039 57.128 276.2 55.791C277.361 54.4539 277.132 52.8991 275.688 52.3184L273.176 51.307L275.454 50.0871C277.154 49.1765 277.938 47.5157 277.205 46.3772C276.472 45.239 274.498 45.0542 272.798 45.9648L267.264 48.9278L262.294 46.9269C262.782 46.0046 263.134 45.0474 263.325 44.0745C263.515 43.1016 263.533 42.1747 263.395 41.3088L269.342 38.3211L273.893 40.3722C275.292 41.0025 277.41 40.4478 278.624 39.1335C279.838 37.8189 279.688 36.2425 278.289 35.6121L276.415 34.7678L279.422 33.2574C281.149 32.3899 282.006 30.7369 281.337 29.5654C280.667 28.3938 278.725 28.1473 276.998 29.0148L273.991 30.5252L274.279 28.5949C274.495 27.1537 273.178 26.1633 271.338 26.3827C269.499 26.6022 267.833 27.9483 267.618 29.3895L266.918 34.0785L260.967 37.068C259.567 35.8791 257.648 35.0824 255.373 34.814L256.35 29.8256L262.046 27.1474C263.797 26.3242 264.726 24.6816 264.121 23.4785C263.517 22.2754 261.608 21.9673 259.857 22.7905L257.512 23.893L258.006 21.3713Z" fill="#FA99E1"/>
<path d="M165.44 4.93137C165.49 4.41888 165.02 4.09082 164.391 4.19865C163.763 4.30647 163.212 4.80934 163.163 5.32183L163.076 6.21415L162.362 6.02103C161.83 5.87685 161.124 6.16812 160.786 6.6716C160.448 7.17508 160.606 7.70009 161.139 7.84428L162.872 8.31338L162.7 10.0785C161.87 10.3889 161.11 10.863 160.492 11.4349L158.702 10.8737L158.94 9.19428C159.013 8.67812 158.565 8.33153 157.938 8.42014C157.312 8.50876 156.744 8.99903 156.671 9.51519L156.573 10.2065L155.668 9.92297C155.148 9.76009 154.437 10.0316 154.08 10.5293C153.722 11.027 153.854 11.5626 154.373 11.7255L155.278 12.009L154.53 12.4965C153.971 12.8604 153.754 13.4607 154.047 13.8374C154.339 14.2139 155.029 14.2242 155.588 13.8603L157.407 12.6762L159.197 13.2371C159.058 13.5718 158.969 13.9149 158.935 14.2591C158.902 14.6033 158.927 14.9266 159.004 15.2244L157.042 16.4286L155.396 15.8385C154.89 15.6572 154.174 15.9086 153.798 16.3998C153.421 16.8912 153.526 17.4365 154.032 17.6178L154.71 17.8607L153.718 18.4694C153.149 18.819 152.907 19.4185 153.178 19.8085C153.449 20.1984 154.131 20.2311 154.7 19.8814L155.692 19.2727L155.657 19.9533C155.63 20.4614 156.12 20.7705 156.75 20.6435C157.381 20.5167 157.913 20.0019 157.939 19.4938L158.025 17.8406L159.987 16.6359C160.512 17.012 161.204 17.2371 162.002 17.2683L161.83 19.0334L159.946 20.1228C159.366 20.4576 159.099 21.0555 159.349 21.4582C159.599 21.8609 160.271 21.9159 160.85 21.5811L161.626 21.1326L161.539 22.0249C161.49 22.5375 161.959 22.8655 162.588 22.7577C163.217 22.6498 163.767 22.147 163.817 21.6345L163.903 20.7422L164.617 20.9353C165.15 21.0795 165.855 20.7882 166.193 20.2847C166.531 19.7813 166.373 19.2562 165.841 19.112L164.107 18.643L164.279 16.8778C165.11 16.5675 165.869 16.0935 166.487 15.5217L168.278 16.083L168.039 17.7624C167.966 18.2786 168.415 18.6251 169.041 18.5365C169.668 18.4479 170.235 17.9576 170.308 17.4414L170.406 16.7501L171.311 17.0337C171.831 17.1966 172.542 16.9251 172.9 16.4274C173.257 15.9296 173.126 15.3941 172.606 15.2313L171.701 14.9477L172.45 14.4601C173.009 14.0962 173.225 13.496 172.932 13.1193C172.64 12.7428 171.95 12.7324 171.391 13.0964L169.572 14.2806L167.782 13.7195C167.921 13.3847 168.011 13.0415 168.044 12.6972C168.078 12.353 168.052 12.0295 167.976 11.7315L169.937 10.5274L171.583 11.1174C172.089 11.2988 172.805 11.0474 173.182 10.5561C173.558 10.0648 173.453 9.51952 172.947 9.3382L172.27 9.09531L173.261 8.48656C173.831 8.13694 174.073 7.53742 173.801 7.14751C173.53 6.75758 172.848 6.72491 172.279 7.07453L171.287 7.68328L171.322 7.0027C171.349 6.49458 170.859 6.18553 170.229 6.31241C169.599 6.43929 169.066 6.95405 169.04 7.46216L168.955 9.11537L166.992 10.3203C166.467 9.94431 165.775 9.71924 164.978 9.68807L165.149 7.92292L167.034 6.83351C167.613 6.4987 167.88 5.90082 167.63 5.49812C167.38 5.09542 166.708 5.04038 166.129 5.37522L165.353 5.82369L165.44 4.93137Z" fill="#FA99E1"/>
</svg>
